<svg fill="#000000" height="200px" width="200px" version="1.1" id="Capa_1" xmlns="http://www.w3.org/2000/svg" xmlns:xlink="http://www.w3.org/1999/xlink" viewBox="0 0 490 490" xml:space="preserve"><g id="SVGRepo_bgCarrier" stroke-width="0"></g><g id="SVGRepo_tracerCarrier" stroke-linecap="round" stroke-linejoin="round"></g><g id="SVGRepo_iconCarrier"> <g> <g> <g> <path d="M385.75,371.4l-16.3-15.9c57.9-65.3,55.6-165.3-7-227.9c-64.6-65.3-170.3-65.3-235.3-0.4s-64.9,170.7,0,235.7 c63,62.6,163.3,64.9,228.7,6.6l15.9,15.9l-16.3,16.3l19.1,19.1l46.3-46.3l-19.1-19.1L385.75,371.4z M153.55,336.4 c-50.6-50.6-50.6-132.2,0-182.8s132.2-50.6,182.8,0s50.6,132.2,0,182.8S204.15,386.9,153.55,336.4z"></path> <path d="M307.25,168.8l-69.3,69.2c-2.3,2.3-3.5,6.2-2.7,9.7l13.6,51.3c1.2,4.7,5.9,8.6,12.1,7c5.4-1.6,8.6-7,7-12.1l-12.1-46.3 l65.3-64.9c3.9-3.9,3.9-10.1,0-14C317.35,164.9,311.05,164.9,307.25,168.8z"></path> <path d="M489.95,116.7L373.35,0l-54.4,54.8l-10.6-10.5l-31.1,17.1c37.7,6.6,72.3,24.1,99.6,51.7c27.6,27.6,45.5,62.2,51.7,99.6 l17.1-31.1l-10.5-10.5L489.95,116.7z"></path> <path d="M61.45,277.3l-17.1,31.1l10.5,10.5l-54.8,54.4L116.65,490l54.4-54.8l10.5,10.5l31.1-17.1c-37.7-6.6-72.3-24.1-99.6-51.7 C85.55,349.2,67.65,314.6,61.45,277.3z"></path> </g> </g> </g> </g></svg>