<svg fill="#000000" height="200px" width="200px" version="1.1" id="Layer_1" xmlns="http://www.w3.org/2000/svg" xmlns:xlink="http://www.w3.org/1999/xlink" viewBox="0 0 502.133 502.133" xml:space="preserve"><g id="SVGRepo_bgCarrier" stroke-width="0"></g><g id="SVGRepo_tracerCarrier" stroke-linecap="round" stroke-linejoin="round"></g><g id="SVGRepo_iconCarrier"> <g> <g> <path d="M272.4,157.6v-20.267c30.933-7.467,37.333-28.8,37.333-48c0-29.867-33.067-70.4-42.667-82.133c-8.533-9.6-24.533-9.6-32,0 c-9.6,11.733-42.667,52.267-42.667,82.133c0,18.133,6.4,40.533,37.333,48V157.6C163.6,160.8,96.4,177.867,96.4,217.333V432.8 c0,48,80,69.333,154.667,69.333S405.733,480.8,405.733,432.8V217.333C405.733,177.867,338.533,160.8,272.4,157.6z M251.067,55.2 c9.6,13.867,17.067,27.733,17.067,34.133c0,4.267-1.067,6.4-1.067,6.4s-2.133,2.133-16,2.133c-13.867,0-16-2.133-16-2.133 c0-1.067-1.067-2.133-1.067-6.4C234,82.933,241.467,69.066,251.067,55.2z M229.733,199.2c1.067,10.667,9.6,20.267,21.333,20.267 c10.667,0,20.267-8.533,21.333-19.2c44.8,2.133,74.667,10.667,86.4,17.067c-13.867,7.467-51.2,18.133-107.733,18.133 c-56.534,0-93.867-10.667-107.733-18.133C155.067,209.867,184.933,201.333,229.733,199.2z M363.067,431.733 c-2.133,7.467-41.6,27.733-112,27.733s-108.8-19.2-112-26.667V261.066c30.933,11.733,72.533,16,112,16s81.067-5.333,112-16 V431.733z"></path> </g> </g> </g></svg>