<svg fill="#000000" height="200px" width="200px" version="1.1" id="Capa_1" xmlns="http://www.w3.org/2000/svg" xmlns:xlink="http://www.w3.org/1999/xlink" viewBox="0 0 38.226 38.226" xml:space="preserve"><g id="SVGRepo_bgCarrier" stroke-width="0"></g><g id="SVGRepo_tracerCarrier" stroke-linecap="round" stroke-linejoin="round"></g><g id="SVGRepo_iconCarrier"> <g> <g id="b164_cuttlery"> <path d="M7.403,4.035l-0.422,7.977h-1.83L4.995,3.873h-1.27L3.53,12.012H1.968L1.322,4.035H0v8.25l0.011,0.004 c0.084,2.631,1.384,2.889,3.145,3.637H3.121v5.512v0.002v13.373c1.511,1.512,2.678,0.002,2.678,0.002l0.005-13.596H5.799v-5.292 c0,0,2.884-1.008,2.968-3.643h0.012l-0.004-8.25H7.403V4.035z"></path> <path d="M16.959,3.487h-1.87v30.965h3.736v-16.37h3.237c1.86-8.135-3.237-14.596-3.237-14.596h-1.866V3.487z"></path> <path d="M33.194,2.741c-2.782,0-5.035,3.365-5.035,7.518c0,3.32,1.443,6.133,3.443,7.127v17.02h3.354V17.287 c1.908-1.068,3.27-3.809,3.27-7.029C38.226,6.106,35.974,2.741,33.194,2.741z"></path> </g> <g id="Capa_1_281_"> </g> </g> </g></svg>