<svg fill="#000000" version="1.1" id="Layer_1" xmlns="http://www.w3.org/2000/svg" xmlns:xlink="http://www.w3.org/1999/xlink" viewBox="0 0 512 512" xml:space="preserve"><g id="SVGRepo_bgCarrier" stroke-width="0"></g><g id="SVGRepo_tracerCarrier" stroke-linecap="round" stroke-linejoin="round"></g><g id="SVGRepo_iconCarrier"> <g> <g> <path d="M388.129,106.544V0h-49.548v69.361C313.803,56.695,285.737,49.548,256,49.548s-57.803,7.146-82.581,19.813V0h-49.548 v106.544c-30.713,32.535-49.548,76.407-49.548,124.682v280.773V512h363.355v-0.002V231.226 C437.677,182.951,418.842,139.079,388.129,106.544z M388.129,462.45H123.871V330.321h264.258V462.45z M388.129,280.773H123.871 v-49.547c0-72.856,59.273-132.129,132.129-132.129s132.129,59.273,132.129,132.129V280.773z"></path> </g> </g> <g> <g> <rect x="222.961" y="156.909" transform="matrix(0.7071 -0.7071 0.7071 0.7071 -59.3295 236.6469)" width="66.064" height="66.064"></rect> </g> </g> </g></svg>