<svg fill="#000000" height="200px" width="200px" version="1.1" id="Capa_1" xmlns="http://www.w3.org/2000/svg" xmlns:xlink="http://www.w3.org/1999/xlink" viewBox="0 0 487.538 487.538" xml:space="preserve"><g id="SVGRepo_bgCarrier" stroke-width="0"></g><g id="SVGRepo_tracerCarrier" stroke-linecap="round" stroke-linejoin="round"></g><g id="SVGRepo_iconCarrier"> <g> <path d="M309.463,139.176h-9.437V67.72h-45.83V32.99c0.044-0.002,0.088-0.001,0.132-0.003c15.923-0.707,31.404-6.765,43.59-17.053 L284.469,0c-8.684,7.335-19.745,11.26-31.068,12.156c-11.368,0.9-34.229-4.577-49.628-3.274 c-9.546,0.808-18.881,4.169-27.041,9.184l10.914,17.766c5.518-3.39,11.842-5.523,18.285-6.21 c9.072-0.967,26.147,1.836,27.413,2.007V67.72h-45.83v71.456h-9.438c-31.995,0-58.027,26.033-58.027,58.027v279.909 c0,5.758,4.667,10.426,10.425,10.426h226.59c5.758,0,10.425-4.667,10.425-10.426V197.203 C367.49,165.209,341.457,139.176,309.463,139.176z M208.365,88.571h70.81v50.605h-70.81V88.571z M346.639,466.687H140.899V197.203 c0-20.5,16.677-37.176,37.176-37.176h131.387c20.5,0,37.176,16.677,37.176,37.176V466.687z"></path> <path d="M307.676,276.362H179.862c-5.758,0-10.425,4.667-10.425,10.425v130.949c0,5.758,4.668,10.426,10.425,10.426h127.813 c5.758,0,10.425-4.667,10.425-10.426V286.787C318.101,281.029,313.434,276.362,307.676,276.362z M297.25,407.311H190.288V297.213 H297.25V407.311z"></path> </g> </g></svg>