<svg fill="#000000" height="200px" width="200px" version="1.1" id="Layer_1" xmlns="http://www.w3.org/2000/svg" xmlns:xlink="http://www.w3.org/1999/xlink" viewBox="0 0 512 512" xml:space="preserve"><g id="SVGRepo_bgCarrier" stroke-width="0"></g><g id="SVGRepo_tracerCarrier" stroke-linecap="round" stroke-linejoin="round"></g><g id="SVGRepo_iconCarrier"> <g> <g> <path d="M471.888,233.068c-6.286-29.204-29.085-55.649-65.764-75.723c-40.373-22.096-93.689-34.264-150.124-34.264 s-109.75,12.169-150.124,34.264c-36.679,20.074-59.478,46.517-65.764,75.723H0v73.011c0,45.678,37.162,82.839,82.839,82.839 h346.321c45.677,0,82.839-37.161,82.839-82.839v-73.011H471.888z M121.906,186.637c35.544-19.453,83.165-30.165,134.094-30.165 s98.55,10.713,134.094,30.165c24.454,13.382,40.597,29.453,47.032,46.431H74.876C81.309,216.091,97.454,200.019,121.906,186.637z M478.609,306.079c0,27.266-22.183,49.448-49.448,49.448H82.839c-27.265,0-49.448-22.182-49.448-49.448v-39.62h445.217V306.079z"></path> </g> </g> </g></svg>