<svg fill="#000000" height="200px" width="200px" version="1.1" id="Layer_1" xmlns="http://www.w3.org/2000/svg" xmlns:xlink="http://www.w3.org/1999/xlink" viewBox="0 0 501.739 501.739" xml:space="preserve"><g id="SVGRepo_bgCarrier" stroke-width="0"></g><g id="SVGRepo_tracerCarrier" stroke-linecap="round" stroke-linejoin="round"></g><g id="SVGRepo_iconCarrier"> <g> <g> <path d="M417.067,13.206C411.733,2.54,400-2.794,389.333,1.473l-57.6,24.533c-5.333,2.133-9.6,7.467-11.733,12.8l-26.667,77.867 h-39.467c-3.2-43.733-40.533-78.933-85.333-78.933c-46.933,0-85.333,38.4-85.333,85.333c0,41.6,29.867,75.733,69.333,83.2 l14.933,276.267c1.067,10.667,10.667,19.2,21.333,19.2h173.867c11.733,0,20.267-8.533,20.267-19.2l19.2-343.467 c1.067-6.4-1.067-21.333-20.267-22.4H336l19.2-55.467l50.133-20.267C416,35.606,421.333,23.873,417.067,13.206z M168.533,116.673 c-18.133,0-20.267,17.067-20.267,22.4l1.067,23.467c-14.934-7.467-25.6-22.4-25.6-39.467c0-23.467,20.267-43.733,43.733-43.733 c21.333,0,39.467,16,42.667,37.333H168.533z M342.4,460.14H208l-7.467-130.133h149.333L342.4,460.14z M359.466,158.273 L352,287.339H198.4l-7.467-129.067H359.466z"></path> </g> </g> </g></svg>